<?xml version="1.0" standalone="no"?>
<!DOCTYPE svg PUBLIC "-//W3C//DTD SVG 1.1//EN" "http://www.w3.org/Graphics/SVG/1.1/DTD/svg11.dtd">
<svg version="1.1" width="1200" height="734" onload="init(evt)" viewBox="0 0 1200 734" xmlns="http://www.w3.org/2000/svg" xmlns:xlink="http://www.w3.org/1999/xlink">
<!-- Flame graph stack visualization. See https://github.com/brendangregg/FlameGraph for latest version, and http://www.brendangregg.com/flamegraphs.html for examples. -->
<!-- NOTES:  -->
<defs>
	<linearGradient id="background" y1="0" y2="1" x1="0" x2="0" >
		<stop stop-color="#eeeeee" offset="5%" />
		<stop stop-color="#e0e0ff" offset="95%" />
	</linearGradient>
</defs>
<style type="text/css">
	text { font-family:Verdana; font-size:12px; fill:rgb(0,0,0); }
	#search, #ignorecase { opacity:0.1; cursor:pointer; }
	#search:hover, #search.show, #ignorecase:hover, #ignorecase.show { opacity:1; }
	#subtitle { text-anchor:middle; font-color:rgb(160,160,160); }
	#title { text-anchor:middle; font-size:17px}
	#unzoom { cursor:pointer; }
	#frames > *:hover { stroke:black; stroke-width:0.5; cursor:pointer; }
	.hide { display:none; }
	.parent { opacity:0.5; }
</style>
<script type="text/ecmascript">
<![CDATA[
	"use strict";
	var details, searchbtn, unzoombtn, matchedtxt, svg, searching, currentSearchTerm, ignorecase, ignorecaseBtn;
	function init(evt) {
		details = document.getElementById("details").firstChild;
		searchbtn = document.getElementById("search");
		ignorecaseBtn = document.getElementById("ignorecase");
		unzoombtn = document.getElementById("unzoom");
		matchedtxt = document.getElementById("matched");
		svg = document.getElementsByTagName("svg")[0];
		searching = 0;
		currentSearchTerm = null;

		// use GET parameters to restore a flamegraphs state.
		var params = get_params();
		if (params.x && params.y)
			zoom(find_group(document.querySelector('[x="' + params.x + '"][y="' + params.y + '"]')));
                if (params.s) search(params.s);
	}

	// event listeners
	window.addEventListener("click", function(e) {
		var target = find_group(e.target);
		if (target) {
			if (target.nodeName == "a") {
				if (e.ctrlKey === false) return;
				e.preventDefault();
			}
			if (target.classList.contains("parent")) unzoom();
			zoom(target);
			if (!document.querySelector('.parent')) {
				clearzoom();
				return;
			}

			// set parameters for zoom state
			var el = target.querySelector("rect");
			if (el && el.attributes && el.attributes.y && el.attributes._orig_x) {
				var params = get_params()
				params.x = el.attributes._orig_x.value;
				params.y = el.attributes.y.value;
				history.replaceState(null, null, parse_params(params));
			}
		}
		else if (e.target.id == "unzoom") clearzoom();
		else if (e.target.id == "search") search_prompt();
		else if (e.target.id == "ignorecase") toggle_ignorecase();
	}, false)

	// mouse-over for info
	// show
	window.addEventListener("mouseover", function(e) {
		var target = find_group(e.target);
		if (target) details.nodeValue = "Function: " + g_to_text(target);
	}, false)

	// clear
	window.addEventListener("mouseout", function(e) {
		var target = find_group(e.target);
		if (target) details.nodeValue = ' ';
	}, false)

	// ctrl-F for search
	// ctrl-I to toggle case-sensitive search
	window.addEventListener("keydown",function (e) {
		if (e.keyCode === 114 || (e.ctrlKey && e.keyCode === 70)) {
			e.preventDefault();
			search_prompt();
		}
		else if (e.ctrlKey && e.keyCode === 73) {
			e.preventDefault();
			toggle_ignorecase();
		}
	}, false)

	// functions
	function get_params() {
		var params = {};
		var paramsarr = window.location.search.substr(1).split('&');
		for (var i = 0; i < paramsarr.length; ++i) {
			var tmp = paramsarr[i].split("=");
			if (!tmp[0] || !tmp[1]) continue;
			params[tmp[0]]  = decodeURIComponent(tmp[1]);
		}
		return params;
	}
	function parse_params(params) {
		var uri = "?";
		for (var key in params) {
			uri += key + '=' + encodeURIComponent(params[key]) + '&';
		}
		if (uri.slice(-1) == "&")
			uri = uri.substring(0, uri.length - 1);
		if (uri == '?')
			uri = window.location.href.split('?')[0];
		return uri;
	}
	function find_child(node, selector) {
		var children = node.querySelectorAll(selector);
		if (children.length) return children[0];
	}
	function find_group(node) {
		var parent = node.parentElement;
		if (!parent) return;
		if (parent.id == "frames") return node;
		return find_group(parent);
	}
	function orig_save(e, attr, val) {
		if (e.attributes["_orig_" + attr] != undefined) return;
		if (e.attributes[attr] == undefined) return;
		if (val == undefined) val = e.attributes[attr].value;
		e.setAttribute("_orig_" + attr, val);
	}
	function orig_load(e, attr) {
		if (e.attributes["_orig_"+attr] == undefined) return;
		e.attributes[attr].value = e.attributes["_orig_" + attr].value;
		e.removeAttribute("_orig_"+attr);
	}
	function g_to_text(e) {
		var text = find_child(e, "title").firstChild.nodeValue;
		return (text)
	}
	function g_to_func(e) {
		var func = g_to_text(e);
		// if there's any manipulation we want to do to the function
		// name before it's searched, do it here before returning.
		return (func);
	}
	function update_text(e) {
		var r = find_child(e, "rect");
		var t = find_child(e, "text");
		var w = parseFloat(r.attributes.width.value) -3;
		var txt = find_child(e, "title").textContent.replace(/\([^(]*\)$/,"");
		t.attributes.x.value = parseFloat(r.attributes.x.value) + 3;

		// Smaller than this size won't fit anything
		if (w < 2 * 12 * 0.59) {
			t.textContent = "";
			return;
		}

		t.textContent = txt;
		// Fit in full text width
		if (/^ *$/.test(txt) || t.getSubStringLength(0, txt.length) < w)
			return;

		for (var x = txt.length - 2; x > 0; x--) {
			if (t.getSubStringLength(0, x + 2) <= w) {
				t.textContent = txt.substring(0, x) + "..";
				return;
			}
		}
		t.textContent = "";
	}

	// zoom
	function zoom_reset(e) {
		if (e.attributes != undefined) {
			orig_load(e, "x");
			orig_load(e, "width");
		}
		if (e.childNodes == undefined) return;
		for (var i = 0, c = e.childNodes; i < c.length; i++) {
			zoom_reset(c[i]);
		}
	}
	function zoom_child(e, x, ratio) {
		if (e.attributes != undefined) {
			if (e.attributes.x != undefined) {
				orig_save(e, "x");
				e.attributes.x.value = (parseFloat(e.attributes.x.value) - x - 10) * ratio + 10;
				if (e.tagName == "text")
					e.attributes.x.value = find_child(e.parentNode, "rect[x]").attributes.x.value + 3;
			}
			if (e.attributes.width != undefined) {
				orig_save(e, "width");
				e.attributes.width.value = parseFloat(e.attributes.width.value) * ratio;
			}
		}

		if (e.childNodes == undefined) return;
		for (var i = 0, c = e.childNodes; i < c.length; i++) {
			zoom_child(c[i], x - 10, ratio);
		}
	}
	function zoom_parent(e) {
		if (e.attributes) {
			if (e.attributes.x != undefined) {
				orig_save(e, "x");
				e.attributes.x.value = 10;
			}
			if (e.attributes.width != undefined) {
				orig_save(e, "width");
				e.attributes.width.value = parseInt(svg.width.baseVal.value) - (10 * 2);
			}
		}
		if (e.childNodes == undefined) return;
		for (var i = 0, c = e.childNodes; i < c.length; i++) {
			zoom_parent(c[i]);
		}
	}
	function zoom(node) {
		var attr = find_child(node, "rect").attributes;
		var width = parseFloat(attr.width.value);
		var xmin = parseFloat(attr.x.value);
		var xmax = parseFloat(xmin + width);
		var ymin = parseFloat(attr.y.value);
		var ratio = (svg.width.baseVal.value - 2 * 10) / width;

		// XXX: Workaround for JavaScript float issues (fix me)
		var fudge = 0.0001;

		unzoombtn.classList.remove("hide");

		var el = document.getElementById("frames").children;
		for (var i = 0; i < el.length; i++) {
			var e = el[i];
			var a = find_child(e, "rect").attributes;
			var ex = parseFloat(a.x.value);
			var ew = parseFloat(a.width.value);
			var upstack;
			// Is it an ancestor
			if (0 == 0) {
				upstack = parseFloat(a.y.value) > ymin;
			} else {
				upstack = parseFloat(a.y.value) < ymin;
			}
			if (upstack) {
				// Direct ancestor
				if (ex <= xmin && (ex+ew+fudge) >= xmax) {
					e.classList.add("parent");
					zoom_parent(e);
					update_text(e);
				}
				// not in current path
				else
					e.classList.add("hide");
			}
			// Children maybe
			else {
				// no common path
				if (ex < xmin || ex + fudge >= xmax) {
					e.classList.add("hide");
				}
				else {
					zoom_child(e, xmin, ratio);
					update_text(e);
				}
			}
		}
		search();
	}
	function unzoom() {
		unzoombtn.classList.add("hide");
		var el = document.getElementById("frames").children;
		for(var i = 0; i < el.length; i++) {
			el[i].classList.remove("parent");
			el[i].classList.remove("hide");
			zoom_reset(el[i]);
			update_text(el[i]);
		}
		search();
	}
	function clearzoom() {
		unzoom();

		// remove zoom state
		var params = get_params();
		if (params.x) delete params.x;
		if (params.y) delete params.y;
		history.replaceState(null, null, parse_params(params));
	}

	// search
	function toggle_ignorecase() {
		ignorecase = !ignorecase;
		if (ignorecase) {
			ignorecaseBtn.classList.add("show");
		} else {
			ignorecaseBtn.classList.remove("show");
		}
		reset_search();
		search();
	}
	function reset_search() {
		var el = document.querySelectorAll("#frames rect");
		for (var i = 0; i < el.length; i++) {
			orig_load(el[i], "fill")
		}
		var params = get_params();
		delete params.s;
		history.replaceState(null, null, parse_params(params));
	}
	function search_prompt() {
		if (!searching) {
			var term = prompt("Enter a search term (regexp " +
			    "allowed, eg: ^ext4_)"
			    + (ignorecase ? ", ignoring case" : "")
			    + "\nPress Ctrl-i to toggle case sensitivity", "");
			if (term != null) search(term);
		} else {
			reset_search();
			searching = 0;
			currentSearchTerm = null;
			searchbtn.classList.remove("show");
			searchbtn.firstChild.nodeValue = "Search"
			matchedtxt.classList.add("hide");
			matchedtxt.firstChild.nodeValue = ""
		}
	}
	function search(term) {
		if (term) currentSearchTerm = term;

		var re = new RegExp(currentSearchTerm, ignorecase ? 'i' : '');
		var el = document.getElementById("frames").children;
		var matches = new Object();
		var maxwidth = 0;
		for (var i = 0; i < el.length; i++) {
			var e = el[i];
			var func = g_to_func(e);
			var rect = find_child(e, "rect");
			if (func == null || rect == null)
				continue;

			// Save max width. Only works as we have a root frame
			var w = parseFloat(rect.attributes.width.value);
			if (w > maxwidth)
				maxwidth = w;

			if (func.match(re)) {
				// highlight
				var x = parseFloat(rect.attributes.x.value);
				orig_save(rect, "fill");
				rect.attributes.fill.value = "rgb(230,0,230)";

				// remember matches
				if (matches[x] == undefined) {
					matches[x] = w;
				} else {
					if (w > matches[x]) {
						// overwrite with parent
						matches[x] = w;
					}
				}
				searching = 1;
			}
		}
		if (!searching)
			return;
		var params = get_params();
		params.s = currentSearchTerm;
		history.replaceState(null, null, parse_params(params));

		searchbtn.classList.add("show");
		searchbtn.firstChild.nodeValue = "Reset Search";

		// calculate percent matched, excluding vertical overlap
		var count = 0;
		var lastx = -1;
		var lastw = 0;
		var keys = Array();
		for (k in matches) {
			if (matches.hasOwnProperty(k))
				keys.push(k);
		}
		// sort the matched frames by their x location
		// ascending, then width descending
		keys.sort(function(a, b){
			return a - b;
		});
		// Step through frames saving only the biggest bottom-up frames
		// thanks to the sort order. This relies on the tree property
		// where children are always smaller than their parents.
		var fudge = 0.0001;	// JavaScript floating point
		for (var k in keys) {
			var x = parseFloat(keys[k]);
			var w = matches[keys[k]];
			if (x >= lastx + lastw - fudge) {
				count += w;
				lastx = x;
				lastw = w;
			}
		}
		// display matched percent
		matchedtxt.classList.remove("hide");
		var pct = 100 * count / maxwidth;
		if (pct != 100) pct = pct.toFixed(1)
		matchedtxt.firstChild.nodeValue = "Matched: " + pct + "%";
	}
]]>
</script>
<rect x="0.0" y="0" width="1200.0" height="734.0" fill="url(#background)"  />
<text id="title" x="600.00" y="24" >Off-CPU Time Analysis of a Pstgres v14 backend</text>
<text id="subtitle" x="600.00" y="48" >pg_stat_statements.max = 400</text>
<text id="details" x="10.00" y="717" > </text>
<text id="unzoom" x="10.00" y="24" class="hide">Reset Zoom</text>
<text id="search" x="1090.00" y="24" >Search</text>
<text id="ignorecase" x="1174.00" y="24" >ic</text>
<text id="matched" x="1090.00" y="717" > </text>
<g id="frames">
<g >
<title>addRangeTableEntry (5,107 us, 0.02%)</title><rect x="1188.1" y="365" width="0.2" height="15.0" fill="rgb(105,216,216)" rx="2" ry="2" />
<text  x="1191.09" y="375.5" ></text>
</g>
<g >
<title>irqentry_exit_to_user_mode (80,726 us, 0.26%)</title><rect x="10.1" y="621" width="3.0" height="15.0" fill="rgb(103,213,213)" rx="2" ry="2" />
<text  x="13.08" y="631.5" ></text>
</g>
<g >
<title>ResourceOwnerEnlargeRelationRefs (12,296 us, 0.04%)</title><rect x="1187.1" y="301" width="0.5" height="15.0" fill="rgb(82,195,195)" rx="2" ry="2" />
<text  x="1190.13" y="311.5" ></text>
</g>
<g >
<title>schedule (119,021 us, 0.38%)</title><rect x="13.1" y="589" width="4.4" height="15.0" fill="rgb(71,184,184)" rx="2" ry="2" />
<text  x="16.10" y="599.5" ></text>
</g>
<g >
<title>schedule (4,431 us, 0.01%)</title><rect x="1186.4" y="93" width="0.2" height="15.0" fill="rgb(55,169,169)" rx="2" ry="2" />
<text  x="1189.43" y="103.5" ></text>
</g>
<g >
<title>finish_task_switch (3,138 us, 0.01%)</title><rect x="1188.4" y="365" width="0.1" height="15.0" fill="rgb(69,183,183)" rx="2" ry="2" />
<text  x="1191.43" y="375.5" ></text>
</g>
<g >
<title>transformStmt (9,851 us, 0.03%)</title><rect x="1188.0" y="445" width="0.3" height="15.0" fill="rgb(75,188,188)" rx="2" ry="2" />
<text  x="1190.97" y="455.5" ></text>
</g>
<g >
<title>standard_ExecutorRun (10,366 us, 0.03%)</title><rect x="1186.4" y="445" width="0.4" height="15.0" fill="rgb(93,204,204)" rx="2" ry="2" />
<text  x="1189.37" y="455.5" ></text>
</g>
<g >
<title>schedule (5,344 us, 0.02%)</title><rect x="1189.7" y="413" width="0.2" height="15.0" fill="rgb(69,183,183)" rx="2" ry="2" />
<text  x="1192.69" y="423.5" ></text>
</g>
<g >
<title>syscall_exit_to_user_mode (4,431 us, 0.01%)</title><rect x="1186.4" y="125" width="0.2" height="15.0" fill="rgb(67,181,181)" rx="2" ry="2" />
<text  x="1189.43" y="135.5" ></text>
</g>
<g >
<title>ExecutorStart (22,411 us, 0.07%)</title><rect x="1186.8" y="493" width="0.8" height="15.0" fill="rgb(78,191,191)" rx="2" ry="2" />
<text  x="1189.81" y="503.5" ></text>
</g>
<g >
<title>schedule_hrtimeout_range_clock (914,190 us, 2.89%)</title><rect x="17.6" y="333" width="34.1" height="15.0" fill="rgb(81,193,193)" rx="2" ry="2" />
<text  x="20.60" y="343.5" >sc..</text>
</g>
<g >
<title>table_openrv_extended (3,075 us, 0.01%)</title><rect x="1188.2" y="333" width="0.1" height="15.0" fill="rgb(103,213,213)" rx="2" ry="2" />
<text  x="1191.16" y="343.5" ></text>
</g>
<g >
<title>unix_stream_sendmsg (7,666 us, 0.02%)</title><rect x="52.3" y="349" width="0.3" height="15.0" fill="rgb(104,214,214)" rx="2" ry="2" />
<text  x="55.30" y="359.5" ></text>
</g>
<g >
<title>all (31,612,932 us, 100%)</title><rect x="10.0" y="685" width="1180.0" height="15.0" fill="rgb(53,168,168)" rx="2" ry="2" />
<text  x="13.00" y="695.5" ></text>
</g>
<g >
<title>raw_parser (9,369 us, 0.03%)</title><rect x="1188.4" y="493" width="0.4" height="15.0" fill="rgb(57,171,171)" rx="2" ry="2" />
<text  x="1191.42" y="503.5" ></text>
</g>
<g >
<title>ExecGetRangeTableRelation (13,204 us, 0.04%)</title><rect x="1187.1" y="381" width="0.5" height="15.0" fill="rgb(105,215,215)" rx="2" ry="2" />
<text  x="1190.12" y="391.5" ></text>
</g>
<g >
<title>WaitEventSetWait (914,699 us, 2.89%)</title><rect x="17.6" y="445" width="34.1" height="15.0" fill="rgb(100,211,211)" rx="2" ry="2" />
<text  x="20.60" y="455.5" >Wa..</text>
</g>
<g >
<title>entry_SYSCALL_64_after_hwframe (914,190 us, 2.89%)</title><rect x="17.6" y="397" width="34.1" height="15.0" fill="rgb(106,216,216)" rx="2" ry="2" />
<text  x="20.60" y="407.5" >en..</text>
</g>
<g >
<title>pgss_planner (21,947 us, 0.07%)</title><rect x="1188.8" y="461" width="0.8" height="15.0" fill="rgb(103,214,214)" rx="2" ry="2" />
<text  x="1191.78" y="471.5" ></text>
</g>
<g >
<title>kmem_cache_alloc_node (2,737 us, 0.01%)</title><rect x="52.4" y="285" width="0.1" height="15.0" fill="rgb(51,166,166)" rx="2" ry="2" />
<text  x="55.43" y="295.5" ></text>
</g>
<g >
<title>estimate_rel_size (3,786 us, 0.01%)</title><rect x="1189.1" y="317" width="0.2" height="15.0" fill="rgb(98,209,209)" rx="2" ry="2" />
<text  x="1192.13" y="327.5" ></text>
</g>
<g >
<title>sock_sendmsg (10,090 us, 0.03%)</title><rect x="52.2" y="365" width="0.4" height="15.0" fill="rgb(109,219,219)" rx="2" ry="2" />
<text  x="55.21" y="375.5" ></text>
</g>
<g >
<title>PortalDrop (6,485 us, 0.02%)</title><rect x="1186.0" y="509" width="0.2" height="15.0" fill="rgb(100,211,211)" rx="2" ry="2" />
<text  x="1189.01" y="519.5" ></text>
</g>
<g >
<title>postgres (31,612,932 us, 100.00%)</title><rect x="10.0" y="669" width="1180.0" height="15.0" fill="rgb(104,215,215)" rx="2" ry="2" />
<text  x="13.00" y="679.5" >postgres</text>
</g>
<g >
<title>ExecInitSeqScan (17,848 us, 0.06%)</title><rect x="1187.0" y="413" width="0.6" height="15.0" fill="rgb(100,211,211)" rx="2" ry="2" />
<text  x="1189.96" y="423.5" ></text>
</g>
<g >
<title>BackendStartup (31,409,092 us, 99.36%)</title><rect x="17.6" y="573" width="1172.3" height="15.0" fill="rgb(50,165,165)" rx="2" ry="2" />
<text  x="20.55" y="583.5" >BackendStartup</text>
</g>
<g >
<title>parse_analyze (12,939 us, 0.04%)</title><rect x="1187.9" y="493" width="0.4" height="15.0" fill="rgb(62,176,176)" rx="2" ry="2" />
<text  x="1190.85" y="503.5" ></text>
</g>
<g >
<title>_cond_resched (3,427 us, 0.01%)</title><rect x="52.3" y="253" width="0.1" height="15.0" fill="rgb(103,214,214)" rx="2" ry="2" />
<text  x="55.30" y="263.5" ></text>
</g>
<g >
<title>build_simple_rel (5,233 us, 0.02%)</title><rect x="1189.1" y="349" width="0.2" height="15.0" fill="rgb(106,216,216)" rx="2" ry="2" />
<text  x="1192.10" y="359.5" ></text>
</g>
<g >
<title>- (12,296 us, 0.04%)</title><rect x="1187.1" y="269" width="0.5" height="15.0" fill="rgb(200,200,200)" rx="2" ry="2" />
<text  x="1190.13" y="279.5" ></text>
</g>
<g >
<title>base_yyparse (8,695 us, 0.03%)</title><rect x="1188.4" y="477" width="0.3" height="15.0" fill="rgb(95,206,206)" rx="2" ry="2" />
<text  x="1191.42" y="487.5" ></text>
</g>
<g >
<title>__x64_sys_sendto (10,090 us, 0.03%)</title><rect x="52.2" y="397" width="0.4" height="15.0" fill="rgb(81,193,193)" rx="2" ry="2" />
<text  x="55.21" y="407.5" ></text>
</g>
<g >
<title>pq_getbyte (925,110 us, 2.93%)</title><rect x="17.6" y="493" width="34.5" height="15.0" fill="rgb(73,186,186)" rx="2" ry="2" />
<text  x="20.60" y="503.5" >pq..</text>
</g>
<g >
<title>__sys_sendto (10,090 us, 0.03%)</title><rect x="52.2" y="381" width="0.4" height="15.0" fill="rgb(108,218,218)" rx="2" ry="2" />
<text  x="55.21" y="391.5" ></text>
</g>
<g >
<title>irqentry_exit_to_user_mode (12,296 us, 0.04%)</title><rect x="1187.1" y="237" width="0.5" height="15.0" fill="rgb(70,183,183)" rx="2" ry="2" />
<text  x="1190.13" y="247.5" ></text>
</g>
<g >
<title>__schedule (30,353,490 us, 96.02%)</title><rect x="52.6" y="365" width="1133.0" height="15.0" fill="rgb(95,207,207)" rx="2" ry="2" />
<text  x="55.59" y="375.5" >__schedule</text>
</g>
<g >
<title>slab_pre_alloc_hook.constprop.0 (2,737 us, 0.01%)</title><rect x="52.4" y="269" width="0.1" height="15.0" fill="rgb(75,188,188)" rx="2" ry="2" />
<text  x="55.43" y="279.5" ></text>
</g>
<g >
<title>secure_write (30,364,371 us, 96.05%)</title><rect x="52.2" y="477" width="1133.4" height="15.0" fill="rgb(91,203,203)" rx="2" ry="2" />
<text  x="55.18" y="487.5" >secure_write</text>
</g>
<g >
<title>- (4,431 us, 0.01%)</title><rect x="1186.4" y="157" width="0.2" height="15.0" fill="rgb(200,200,200)" rx="2" ry="2" />
<text  x="1189.43" y="167.5" ></text>
</g>
<g >
<title>pgss_ExecutorEnd (3,546 us, 0.01%)</title><rect x="1186.0" y="461" width="0.2" height="15.0" fill="rgb(88,200,200)" rx="2" ry="2" />
<text  x="1189.02" y="471.5" ></text>
</g>
<g >
<title>epoll_wait (914,699 us, 2.89%)</title><rect x="17.6" y="429" width="34.1" height="15.0" fill="rgb(71,185,185)" rx="2" ry="2" />
<text  x="20.60" y="439.5" >ep..</text>
</g>
<g >
<title>asm_sysvec_apic_timer_interrupt (3,138 us, 0.01%)</title><rect x="1188.4" y="445" width="0.1" height="15.0" fill="rgb(96,207,207)" rx="2" ry="2" />
<text  x="1191.43" y="455.5" ></text>
</g>
<g >
<title>finish_task_switch (119,021 us, 0.38%)</title><rect x="13.1" y="557" width="4.4" height="15.0" fill="rgb(100,210,210)" rx="2" ry="2" />
<text  x="16.10" y="567.5" ></text>
</g>
<g >
<title>__schedule (12,296 us, 0.04%)</title><rect x="1187.1" y="189" width="0.5" height="15.0" fill="rgb(75,188,188)" rx="2" ry="2" />
<text  x="1190.13" y="199.5" ></text>
</g>
<g >
<title>add_base_rels_to_query (5,275 us, 0.02%)</title><rect x="1189.1" y="365" width="0.2" height="15.0" fill="rgb(87,199,199)" rx="2" ry="2" />
<text  x="1192.10" y="375.5" ></text>
</g>
<g >
<title>schedule (80,726 us, 0.26%)</title><rect x="10.1" y="589" width="3.0" height="15.0" fill="rgb(80,193,193)" rx="2" ry="2" />
<text  x="13.08" y="599.5" ></text>
</g>
<g >
<title>smgrnblocks (4,451 us, 0.01%)</title><rect x="1186.4" y="221" width="0.2" height="15.0" fill="rgb(84,197,197)" rx="2" ry="2" />
<text  x="1189.43" y="231.5" ></text>
</g>
<g >
<title>finish_task_switch (12,296 us, 0.04%)</title><rect x="1187.1" y="173" width="0.5" height="15.0" fill="rgb(98,209,209)" rx="2" ry="2" />
<text  x="1190.13" y="183.5" ></text>
</g>
<g >
<title>slab_pre_alloc_hook.constprop.0 (3,427 us, 0.01%)</title><rect x="52.3" y="269" width="0.1" height="15.0" fill="rgb(108,218,218)" rx="2" ry="2" />
<text  x="55.30" y="279.5" ></text>
</g>
<g >
<title>table_relation_estimate_size (3,695 us, 0.01%)</title><rect x="1189.1" y="301" width="0.2" height="15.0" fill="rgb(93,205,205)" rx="2" ry="2" />
<text  x="1192.13" y="311.5" ></text>
</g>
<g >
<title>grouping_planner (13,137 us, 0.04%)</title><rect x="1189.0" y="413" width="0.5" height="15.0" fill="rgb(93,205,205)" rx="2" ry="2" />
<text  x="1192.01" y="423.5" ></text>
</g>
<g >
<title>ExecProcNodeFirst (5,864 us, 0.02%)</title><rect x="1186.4" y="397" width="0.2" height="15.0" fill="rgb(65,178,178)" rx="2" ry="2" />
<text  x="1189.38" y="407.5" ></text>
</g>
<g >
<title>schedule (3,138 us, 0.01%)</title><rect x="1188.4" y="397" width="0.1" height="15.0" fill="rgb(86,198,198)" rx="2" ry="2" />
<text  x="1191.43" y="407.5" ></text>
</g>
<g >
<title>pg_parse_query (9,532 us, 0.03%)</title><rect x="1188.4" y="509" width="0.4" height="15.0" fill="rgb(78,191,191)" rx="2" ry="2" />
<text  x="1191.42" y="519.5" ></text>
</g>
<g >
<title>alloc_skb_with_frags (6,164 us, 0.02%)</title><rect x="52.3" y="317" width="0.2" height="15.0" fill="rgb(55,170,170)" rx="2" ry="2" />
<text  x="55.30" y="327.5" ></text>
</g>
<g >
<title>finish_task_switch (5,344 us, 0.02%)</title><rect x="1189.7" y="381" width="0.2" height="15.0" fill="rgb(107,218,218)" rx="2" ry="2" />
<text  x="1192.69" y="391.5" ></text>
</g>
<g >
<title>table_open (13,184 us, 0.04%)</title><rect x="1187.1" y="365" width="0.5" height="15.0" fill="rgb(102,212,212)" rx="2" ry="2" />
<text  x="1190.13" y="375.5" ></text>
</g>
<g >
<title>exit_to_user_mode_prepare (4,431 us, 0.01%)</title><rect x="1186.4" y="109" width="0.2" height="15.0" fill="rgb(59,173,173)" rx="2" ry="2" />
<text  x="1189.43" y="119.5" ></text>
</g>
<g >
<title>pgstat_send_tabstat (5,344 us, 0.02%)</title><rect x="1189.7" y="509" width="0.2" height="15.0" fill="rgb(81,193,193)" rx="2" ry="2" />
<text  x="1192.69" y="519.5" ></text>
</g>
<g >
<title>startup_hacks (31,409,092 us, 99.36%)</title><rect x="17.6" y="621" width="1172.3" height="15.0" fill="rgb(91,203,203)" rx="2" ry="2" />
<text  x="20.55" y="631.5" >startup_hacks</text>
</g>
<g >
<title>SeqNext (5,168 us, 0.02%)</title><rect x="1186.4" y="333" width="0.2" height="15.0" fill="rgb(87,199,199)" rx="2" ry="2" />
<text  x="1189.40" y="343.5" ></text>
</g>
<g >
<title>finish_task_switch (80,726 us, 0.26%)</title><rect x="10.1" y="557" width="3.0" height="15.0" fill="rgb(62,176,176)" rx="2" ry="2" />
<text  x="13.08" y="567.5" ></text>
</g>
<g >
<title>make_one_rel (3,599 us, 0.01%)</title><rect x="1189.3" y="381" width="0.2" height="15.0" fill="rgb(81,194,194)" rx="2" ry="2" />
<text  x="1192.34" y="391.5" ></text>
</g>
<g >
<title>__libc_lseek (4,431 us, 0.01%)</title><rect x="1186.4" y="173" width="0.2" height="15.0" fill="rgb(107,218,218)" rx="2" ry="2" />
<text  x="1189.43" y="183.5" ></text>
</g>
<g >
<title>ServerLoop (31,409,092 us, 99.36%)</title><rect x="17.6" y="589" width="1172.3" height="15.0" fill="rgb(83,195,195)" rx="2" ry="2" />
<text  x="20.55" y="599.5" >ServerLoop</text>
</g>
<g >
<title>table_block_relation_estimate_size (3,548 us, 0.01%)</title><rect x="1189.1" y="269" width="0.2" height="15.0" fill="rgb(91,203,203)" rx="2" ry="2" />
<text  x="1192.14" y="279.5" ></text>
</g>
<g >
<title>- (30,364,304 us, 96.05%)</title><rect x="52.2" y="445" width="1133.4" height="15.0" fill="rgb(200,200,200)" rx="2" ry="2" />
<text  x="55.19" y="455.5" >-</text>
</g>
<g >
<title>PortalStart (24,965 us, 0.08%)</title><rect x="1186.8" y="509" width="0.9" height="15.0" fill="rgb(67,180,180)" rx="2" ry="2" />
<text  x="1189.76" y="519.5" ></text>
</g>
<g >
<title>finish_task_switch (2,743 us, 0.01%)</title><rect x="1188.5" y="365" width="0.1" height="15.0" fill="rgb(67,181,181)" rx="2" ry="2" />
<text  x="1191.54" y="375.5" ></text>
</g>
<g >
<title>asm_sysvec_reschedule_ipi (119,021 us, 0.38%)</title><rect x="13.1" y="637" width="4.4" height="15.0" fill="rgb(99,210,210)" rx="2" ry="2" />
<text  x="16.10" y="647.5" ></text>
</g>
<g >
<title>schedule (914,190 us, 2.89%)</title><rect x="17.6" y="317" width="34.1" height="15.0" fill="rgb(87,199,199)" rx="2" ry="2" />
<text  x="20.60" y="327.5" >sc..</text>
</g>
<g >
<title>asm_sysvec_apic_timer_interrupt (80,726 us, 0.26%)</title><rect x="10.1" y="637" width="3.0" height="15.0" fill="rgb(65,178,178)" rx="2" ry="2" />
<text  x="13.08" y="647.5" ></text>
</g>
<g >
<title>table_relation_size (4,451 us, 0.01%)</title><rect x="1186.4" y="253" width="0.2" height="15.0" fill="rgb(63,177,177)" rx="2" ry="2" />
<text  x="1189.43" y="263.5" ></text>
</g>
<g >
<title>InitPlan (20,841 us, 0.07%)</title><rect x="1186.9" y="445" width="0.7" height="15.0" fill="rgb(96,207,207)" rx="2" ry="2" />
<text  x="1189.87" y="455.5" ></text>
</g>
<g >
<title>syscall_exit_to_user_mode (30,353,490 us, 96.02%)</title><rect x="52.6" y="413" width="1133.0" height="15.0" fill="rgb(58,172,172)" rx="2" ry="2" />
<text  x="55.59" y="423.5" >syscall_exit_to_user_mode</text>
</g>
<g >
<title>pgss_ExecutorRun (10,735 us, 0.03%)</title><rect x="1186.4" y="461" width="0.4" height="15.0" fill="rgb(67,181,181)" rx="2" ry="2" />
<text  x="1189.36" y="471.5" ></text>
</g>
<g >
<title>__schedule (2,737 us, 0.01%)</title><rect x="52.4" y="237" width="0.1" height="15.0" fill="rgb(98,209,209)" rx="2" ry="2" />
<text  x="55.43" y="247.5" ></text>
</g>
<g >
<title>query_planner (10,317 us, 0.03%)</title><rect x="1189.1" y="397" width="0.4" height="15.0" fill="rgb(81,193,193)" rx="2" ry="2" />
<text  x="1192.10" y="407.5" ></text>
</g>
<g >
<title>syscall_exit_to_user_mode (5,344 us, 0.02%)</title><rect x="1189.7" y="445" width="0.2" height="15.0" fill="rgb(89,200,200)" rx="2" ry="2" />
<text  x="1192.69" y="455.5" ></text>
</g>
<g >
<title>ExitPostmaster (31,409,092 us, 99.36%)</title><rect x="17.6" y="557" width="1172.3" height="15.0" fill="rgb(82,194,194)" rx="2" ry="2" />
<text  x="20.55" y="567.5" >ExitPostmaster</text>
</g>
<g >
<title>transformTopLevelStmt (9,851 us, 0.03%)</title><rect x="1188.0" y="477" width="0.3" height="15.0" fill="rgb(83,195,195)" rx="2" ry="2" />
<text  x="1190.97" y="487.5" ></text>
</g>
<g >
<title>ExecutePlan (6,314 us, 0.02%)</title><rect x="1186.4" y="429" width="0.2" height="15.0" fill="rgb(54,169,169)" rx="2" ry="2" />
<text  x="1189.38" y="439.5" ></text>
</g>
<g >
<title>internal_flush (30,364,490 us, 96.05%)</title><rect x="52.2" y="493" width="1133.4" height="15.0" fill="rgb(84,196,196)" rx="2" ry="2" />
<text  x="55.18" y="503.5" >internal_flush</text>
</g>
<g >
<title>exit_to_user_mode_prepare (30,353,490 us, 96.02%)</title><rect x="52.6" y="397" width="1133.0" height="15.0" fill="rgb(68,181,181)" rx="2" ry="2" />
<text  x="55.59" y="407.5" >exit_to_user_mode_prepare</text>
</g>
<g >
<title>ExecOpenScanRelation (13,227 us, 0.04%)</title><rect x="1187.1" y="397" width="0.5" height="15.0" fill="rgb(73,186,186)" rx="2" ry="2" />
<text  x="1190.12" y="407.5" ></text>
</g>
<g >
<title>RelationIncrementReferenceCount (12,513 us, 0.04%)</title><rect x="1187.1" y="317" width="0.5" height="15.0" fill="rgb(53,167,167)" rx="2" ry="2" />
<text  x="1190.13" y="327.5" ></text>
</g>
<g >
<title>PortalRun (13,794 us, 0.04%)</title><rect x="1186.2" y="509" width="0.6" height="15.0" fill="rgb(104,214,214)" rx="2" ry="2" />
<text  x="1189.25" y="519.5" ></text>
</g>
<g >
<title>finish_task_switch (2,737 us, 0.01%)</title><rect x="52.4" y="221" width="0.1" height="15.0" fill="rgb(77,189,189)" rx="2" ry="2" />
<text  x="55.43" y="231.5" ></text>
</g>
<g >
<title>- (10,411 us, 0.03%)</title><rect x="51.7" y="429" width="0.4" height="15.0" fill="rgb(200,200,200)" rx="2" ry="2" />
<text  x="54.74" y="439.5" ></text>
</g>
<g >
<title>CreatePortal (3,744 us, 0.01%)</title><rect x="1185.7" y="509" width="0.1" height="15.0" fill="rgb(103,213,213)" rx="2" ry="2" />
<text  x="1188.66" y="519.5" ></text>
</g>
<g >
<title>planner (22,183 us, 0.07%)</title><rect x="1188.8" y="477" width="0.8" height="15.0" fill="rgb(70,183,183)" rx="2" ry="2" />
<text  x="1191.78" y="487.5" ></text>
</g>
<g >
<title>mdnblocks (4,451 us, 0.01%)</title><rect x="1186.4" y="205" width="0.2" height="15.0" fill="rgb(68,181,181)" rx="2" ry="2" />
<text  x="1189.43" y="215.5" ></text>
</g>
<g >
<title>table_block_relation_size (4,451 us, 0.01%)</title><rect x="1186.4" y="237" width="0.2" height="15.0" fill="rgb(91,202,202)" rx="2" ry="2" />
<text  x="1189.43" y="247.5" ></text>
</g>
<g >
<title>exit_to_user_mode_prepare (3,138 us, 0.01%)</title><rect x="1188.4" y="413" width="0.1" height="15.0" fill="rgb(52,167,167)" rx="2" ry="2" />
<text  x="1191.43" y="423.5" ></text>
</g>
<g >
<title>standard_ExecutorStart (21,159 us, 0.07%)</title><rect x="1186.9" y="461" width="0.7" height="15.0" fill="rgb(55,169,169)" rx="2" ry="2" />
<text  x="1189.85" y="471.5" ></text>
</g>
<g >
<title>pg_plan_queries (22,613 us, 0.07%)</title><rect x="1188.8" y="509" width="0.8" height="15.0" fill="rgb(77,189,189)" rx="2" ry="2" />
<text  x="1191.77" y="519.5" ></text>
</g>
<g >
<title>[unknown] (31,409,439 us, 99.36%)</title><rect x="17.5" y="653" width="1172.4" height="15.0" fill="rgb(108,218,218)" rx="2" ry="2" />
<text  x="20.54" y="663.5" >[unknown]</text>
</g>
<g >
<title>exit_to_user_mode_prepare (12,296 us, 0.04%)</title><rect x="1187.1" y="221" width="0.5" height="15.0" fill="rgb(79,191,191)" rx="2" ry="2" />
<text  x="1190.13" y="231.5" ></text>
</g>
<g >
<title>__schedule (2,743 us, 0.01%)</title><rect x="1188.5" y="381" width="0.1" height="15.0" fill="rgb(50,165,165)" rx="2" ry="2" />
<text  x="1191.54" y="391.5" ></text>
</g>
<g >
<title>entry_SYSCALL_64_after_hwframe (10,398 us, 0.03%)</title><rect x="51.7" y="413" width="0.4" height="15.0" fill="rgb(74,187,187)" rx="2" ry="2" />
<text  x="54.74" y="423.5" ></text>
</g>
<g >
<title>__schedule (80,726 us, 0.26%)</title><rect x="10.1" y="573" width="3.0" height="15.0" fill="rgb(101,212,212)" rx="2" ry="2" />
<text  x="13.08" y="583.5" ></text>
</g>
<g >
<title>PortalRunSelect (10,970 us, 0.03%)</title><rect x="1186.4" y="493" width="0.4" height="15.0" fill="rgb(50,165,165)" rx="2" ry="2" />
<text  x="1189.35" y="503.5" ></text>
</g>
<g >
<title>irqentry_exit_to_user_mode (3,138 us, 0.01%)</title><rect x="1188.4" y="429" width="0.1" height="15.0" fill="rgb(52,167,167)" rx="2" ry="2" />
<text  x="1191.43" y="439.5" ></text>
</g>
<g >
<title>__recv (10,411 us, 0.03%)</title><rect x="51.7" y="445" width="0.4" height="15.0" fill="rgb(91,202,202)" rx="2" ry="2" />
<text  x="54.74" y="455.5" ></text>
</g>
<g >
<title>__schedule (4,431 us, 0.01%)</title><rect x="1186.4" y="77" width="0.2" height="15.0" fill="rgb(52,167,167)" rx="2" ry="2" />
<text  x="1189.43" y="87.5" ></text>
</g>
<g >
<title>__x64_sys_epoll_wait (914,190 us, 2.89%)</title><rect x="17.6" y="365" width="34.1" height="15.0" fill="rgb(108,218,218)" rx="2" ry="2" />
<text  x="20.60" y="375.5" >__..</text>
</g>
<g >
<title>asm_sysvec_reschedule_ipi (2,743 us, 0.01%)</title><rect x="1188.5" y="445" width="0.1" height="15.0" fill="rgb(56,171,171)" rx="2" ry="2" />
<text  x="1191.54" y="455.5" ></text>
</g>
<g >
<title>pg_analyze_and_rewrite (16,052 us, 0.05%)</title><rect x="1187.8" y="509" width="0.6" height="15.0" fill="rgb(94,205,205)" rx="2" ry="2" />
<text  x="1190.82" y="519.5" ></text>
</g>
<g >
<title>transformSelectStmt (9,576 us, 0.03%)</title><rect x="1188.0" y="429" width="0.3" height="15.0" fill="rgb(59,174,174)" rx="2" ry="2" />
<text  x="1190.98" y="439.5" ></text>
</g>
<g >
<title>add_base_rels_to_query (5,275 us, 0.02%)</title><rect x="1189.1" y="381" width="0.2" height="15.0" fill="rgb(106,217,217)" rx="2" ry="2" />
<text  x="1192.10" y="391.5" ></text>
</g>
<g >
<title>finish_task_switch (914,190 us, 2.89%)</title><rect x="17.6" y="285" width="34.1" height="15.0" fill="rgb(95,206,206)" rx="2" ry="2" />
<text  x="20.60" y="295.5" >fi..</text>
</g>
<g >
<title>initscan (4,904 us, 0.02%)</title><rect x="1186.4" y="285" width="0.2" height="15.0" fill="rgb(70,183,183)" rx="2" ry="2" />
<text  x="1189.41" y="295.5" ></text>
</g>
<g >
<title>- (5,344 us, 0.02%)</title><rect x="1189.7" y="477" width="0.2" height="15.0" fill="rgb(200,200,200)" rx="2" ry="2" />
<text  x="1192.69" y="487.5" ></text>
</g>
<g >
<title>RelationIdGetRelation (13,087 us, 0.04%)</title><rect x="1187.1" y="333" width="0.5" height="15.0" fill="rgb(55,169,169)" rx="2" ry="2" />
<text  x="1190.13" y="343.5" ></text>
</g>
<g >
<title>transformTableEntry (5,107 us, 0.02%)</title><rect x="1188.1" y="381" width="0.2" height="15.0" fill="rgb(70,183,183)" rx="2" ry="2" />
<text  x="1191.09" y="391.5" ></text>
</g>
<g >
<title>PortalRunMulti (2,780 us, 0.01%)</title><rect x="1186.3" y="493" width="0.1" height="15.0" fill="rgb(91,202,202)" rx="2" ry="2" />
<text  x="1189.25" y="503.5" ></text>
</g>
<g >
<title>ExecutorEnd (3,568 us, 0.01%)</title><rect x="1186.0" y="477" width="0.2" height="15.0" fill="rgb(54,169,169)" rx="2" ry="2" />
<text  x="1189.02" y="487.5" ></text>
</g>
<g >
<title>standard_planner (21,295 us, 0.07%)</title><rect x="1188.8" y="445" width="0.8" height="15.0" fill="rgb(67,181,181)" rx="2" ry="2" />
<text  x="1191.80" y="455.5" ></text>
</g>
<g >
<title>heap_beginscan (4,924 us, 0.02%)</title><rect x="1186.4" y="301" width="0.2" height="15.0" fill="rgb(79,191,191)" rx="2" ry="2" />
<text  x="1189.41" y="311.5" ></text>
</g>
<g >
<title>heapam_estimate_rel_size (3,613 us, 0.01%)</title><rect x="1189.1" y="285" width="0.2" height="15.0" fill="rgb(99,210,210)" rx="2" ry="2" />
<text  x="1192.13" y="295.5" ></text>
</g>
<g >
<title>irqentry_exit_to_user_mode (2,743 us, 0.01%)</title><rect x="1188.5" y="429" width="0.1" height="15.0" fill="rgb(76,189,189)" rx="2" ry="2" />
<text  x="1191.54" y="439.5" ></text>
</g>
<g >
<title>sock_alloc_send_pskb (6,164 us, 0.02%)</title><rect x="52.3" y="333" width="0.2" height="15.0" fill="rgb(75,188,188)" rx="2" ry="2" />
<text  x="55.30" y="343.5" ></text>
</g>
<g >
<title>ExecProcNode (5,959 us, 0.02%)</title><rect x="1186.4" y="413" width="0.2" height="15.0" fill="rgb(102,212,212)" rx="2" ry="2" />
<text  x="1189.38" y="423.5" ></text>
</g>
<g >
<title>ExecutorRun (10,837 us, 0.03%)</title><rect x="1186.4" y="477" width="0.4" height="15.0" fill="rgb(80,193,193)" rx="2" ry="2" />
<text  x="1189.35" y="487.5" ></text>
</g>
<g >
<title>RelationGetNumberOfBlocksInFork (4,451 us, 0.01%)</title><rect x="1186.4" y="269" width="0.2" height="15.0" fill="rgb(94,205,205)" rx="2" ry="2" />
<text  x="1189.43" y="279.5" ></text>
</g>
<g >
<title>schedule (2,743 us, 0.01%)</title><rect x="1188.5" y="397" width="0.1" height="15.0" fill="rgb(81,193,193)" rx="2" ry="2" />
<text  x="1191.54" y="407.5" ></text>
</g>
<g >
<title>__kmalloc_node_track_caller (3,427 us, 0.01%)</title><rect x="52.3" y="285" width="0.1" height="15.0" fill="rgb(92,203,203)" rx="2" ry="2" />
<text  x="55.30" y="295.5" ></text>
</g>
<g >
<title>relation_openrv_extended (2,893 us, 0.01%)</title><rect x="1188.2" y="317" width="0.1" height="15.0" fill="rgb(60,174,174)" rx="2" ry="2" />
<text  x="1191.17" y="327.5" ></text>
</g>
<g >
<title>__schedule (3,427 us, 0.01%)</title><rect x="52.3" y="237" width="0.1" height="15.0" fill="rgb(56,171,171)" rx="2" ry="2" />
<text  x="55.30" y="247.5" ></text>
</g>
<g >
<title>schedule (30,353,490 us, 96.02%)</title><rect x="52.6" y="381" width="1133.0" height="15.0" fill="rgb(106,216,216)" rx="2" ry="2" />
<text  x="55.59" y="391.5" >schedule</text>
</g>
<g >
<title>__schedule (119,021 us, 0.38%)</title><rect x="13.1" y="573" width="4.4" height="15.0" fill="rgb(107,217,217)" rx="2" ry="2" />
<text  x="16.10" y="583.5" ></text>
</g>
<g >
<title>ReadCommand (925,584 us, 2.93%)</title><rect x="17.6" y="525" width="34.5" height="15.0" fill="rgb(66,180,180)" rx="2" ry="2" />
<text  x="20.60" y="535.5" >Re..</text>
</g>
<g >
<title>finish_task_switch (9,136 us, 0.03%)</title><rect x="51.8" y="333" width="0.3" height="15.0" fill="rgb(65,178,178)" rx="2" ry="2" />
<text  x="54.79" y="343.5" ></text>
</g>
<g >
<title>do_syscall_64 (914,190 us, 2.89%)</title><rect x="17.6" y="381" width="34.1" height="15.0" fill="rgb(104,215,215)" rx="2" ry="2" />
<text  x="20.60" y="391.5" >do..</text>
</g>
<g >
<title>ReadyForQuery (30,365,324 us, 96.05%)</title><rect x="52.1" y="525" width="1133.5" height="15.0" fill="rgb(54,169,169)" rx="2" ry="2" />
<text  x="55.15" y="535.5" >ReadyForQuery</text>
</g>
<g >
<title>socket_flush (30,364,490 us, 96.05%)</title><rect x="52.2" y="509" width="1133.4" height="15.0" fill="rgb(58,172,172)" rx="2" ry="2" />
<text  x="55.18" y="519.5" >socket_flush</text>
</g>
<g >
<title>__schedule (9,136 us, 0.03%)</title><rect x="51.8" y="349" width="0.3" height="15.0" fill="rgb(61,175,175)" rx="2" ry="2" />
<text  x="54.79" y="359.5" ></text>
</g>
<g >
<title>transformFromClause (5,952 us, 0.02%)</title><rect x="1188.1" y="413" width="0.2" height="15.0" fill="rgb(54,169,169)" rx="2" ry="2" />
<text  x="1191.06" y="423.5" ></text>
</g>
<g >
<title>entry_SYSCALL_64_after_hwframe (4,431 us, 0.01%)</title><rect x="1186.4" y="141" width="0.2" height="15.0" fill="rgb(57,171,171)" rx="2" ry="2" />
<text  x="1189.43" y="151.5" ></text>
</g>
<g >
<title>exit_to_user_mode_prepare (9,136 us, 0.03%)</title><rect x="51.8" y="381" width="0.3" height="15.0" fill="rgb(107,217,217)" rx="2" ry="2" />
<text  x="54.79" y="391.5" ></text>
</g>
<g >
<title>exit_to_user_mode_prepare (80,726 us, 0.26%)</title><rect x="10.1" y="605" width="3.0" height="15.0" fill="rgb(92,203,203)" rx="2" ry="2" />
<text  x="13.08" y="615.5" ></text>
</g>
<g >
<title>syscall_exit_to_user_mode (9,136 us, 0.03%)</title><rect x="51.8" y="397" width="0.3" height="15.0" fill="rgb(51,166,166)" rx="2" ry="2" />
<text  x="54.79" y="407.5" ></text>
</g>
<g >
<title>do_syscall_64 (10,090 us, 0.03%)</title><rect x="52.2" y="413" width="0.4" height="15.0" fill="rgb(60,174,174)" rx="2" ry="2" />
<text  x="55.21" y="423.5" ></text>
</g>
<g >
<title>do_epoll_wait (914,190 us, 2.89%)</title><rect x="17.6" y="349" width="34.1" height="15.0" fill="rgb(65,179,179)" rx="2" ry="2" />
<text  x="20.60" y="359.5" >do..</text>
</g>
<g >
<title>ExecScanFetch (5,414 us, 0.02%)</title><rect x="1186.4" y="349" width="0.2" height="15.0" fill="rgb(85,197,197)" rx="2" ry="2" />
<text  x="1189.39" y="359.5" ></text>
</g>
<g >
<title>exit_to_user_mode_prepare (2,743 us, 0.01%)</title><rect x="1188.5" y="413" width="0.1" height="15.0" fill="rgb(66,179,179)" rx="2" ry="2" />
<text  x="1191.54" y="423.5" ></text>
</g>
<g >
<title>finish_task_switch (30,353,490 us, 96.02%)</title><rect x="52.6" y="349" width="1133.0" height="15.0" fill="rgb(87,199,199)" rx="2" ry="2" />
<text  x="55.59" y="359.5" >finish_task_switch</text>
</g>
<g >
<title>transformFromClauseItem (5,515 us, 0.02%)</title><rect x="1188.1" y="397" width="0.2" height="15.0" fill="rgb(78,190,190)" rx="2" ry="2" />
<text  x="1191.07" y="407.5" ></text>
</g>
<g >
<title>entry_SYSCALL_64_after_hwframe (30,363,580 us, 96.05%)</title><rect x="52.2" y="429" width="1133.4" height="15.0" fill="rgb(60,174,174)" rx="2" ry="2" />
<text  x="55.21" y="439.5" >entry_SYSCALL_64_after_hwframe</text>
</g>
<g >
<title>relation_open (13,174 us, 0.04%)</title><rect x="1187.1" y="349" width="0.5" height="15.0" fill="rgb(104,215,215)" rx="2" ry="2" />
<text  x="1190.13" y="359.5" ></text>
</g>
<g >
<title>secure_read (925,110 us, 2.93%)</title><rect x="17.6" y="461" width="34.5" height="15.0" fill="rgb(65,178,178)" rx="2" ry="2" />
<text  x="20.60" y="471.5" >se..</text>
</g>
<g >
<title>[Missed User Stack] (201,999 us, 0.64%)</title><rect x="10.0" y="653" width="7.5" height="15.0" fill="rgb(91,203,203)" rx="2" ry="2" />
<text  x="13.00" y="663.5" ></text>
</g>
<g >
<title>SocketBackend (925,573 us, 2.93%)</title><rect x="17.6" y="509" width="34.5" height="15.0" fill="rgb(85,197,197)" rx="2" ry="2" />
<text  x="20.60" y="519.5" >So..</text>
</g>
<g >
<title>table_beginscan (5,011 us, 0.02%)</title><rect x="1186.4" y="317" width="0.2" height="15.0" fill="rgb(95,206,206)" rx="2" ry="2" />
<text  x="1189.41" y="327.5" ></text>
</g>
<g >
<title>__schedule (5,344 us, 0.02%)</title><rect x="1189.7" y="397" width="0.2" height="15.0" fill="rgb(80,192,192)" rx="2" ry="2" />
<text  x="1192.69" y="407.5" ></text>
</g>
<g >
<title>__libc_start_main (31,409,092 us, 99.36%)</title><rect x="17.6" y="637" width="1172.3" height="15.0" fill="rgb(97,208,208)" rx="2" ry="2" />
<text  x="20.55" y="647.5" >__libc_start_main</text>
</g>
<g >
<title>pgss_ExecutorStart (22,363 us, 0.07%)</title><rect x="1186.8" y="477" width="0.8" height="15.0" fill="rgb(51,166,166)" rx="2" ry="2" />
<text  x="1189.81" y="487.5" ></text>
</g>
<g >
<title>exec_simple_query (109,047 us, 0.34%)</title><rect x="1185.6" y="525" width="4.1" height="15.0" fill="rgb(87,199,199)" rx="2" ry="2" />
<text  x="1188.60" y="535.5" ></text>
</g>
<g >
<title>pq_recvbuf (925,110 us, 2.93%)</title><rect x="17.6" y="477" width="34.5" height="15.0" fill="rgb(96,207,207)" rx="2" ry="2" />
<text  x="20.60" y="487.5" >pq..</text>
</g>
<g >
<title>irqentry_exit_to_user_mode (119,021 us, 0.38%)</title><rect x="13.1" y="621" width="4.4" height="15.0" fill="rgb(66,180,180)" rx="2" ry="2" />
<text  x="16.10" y="631.5" ></text>
</g>
<g >
<title>asm_sysvec_reschedule_ipi (12,296 us, 0.04%)</title><rect x="1187.1" y="253" width="0.5" height="15.0" fill="rgb(68,181,181)" rx="2" ry="2" />
<text  x="1190.13" y="263.5" ></text>
</g>
<g >
<title>transformOptionalSelectInto (9,851 us, 0.03%)</title><rect x="1188.0" y="461" width="0.3" height="15.0" fill="rgb(83,196,196)" rx="2" ry="2" />
<text  x="1190.97" y="471.5" ></text>
</g>
<g >
<title>ResourceArrayEnlarge (12,296 us, 0.04%)</title><rect x="1187.1" y="285" width="0.5" height="15.0" fill="rgb(93,204,204)" rx="2" ry="2" />
<text  x="1190.13" y="295.5" ></text>
</g>
<g >
<title>PostgresMain (31,408,003 us, 99.35%)</title><rect x="17.6" y="541" width="1172.3" height="15.0" fill="rgb(98,209,209)" rx="2" ry="2" />
<text  x="20.56" y="551.5" >PostgresMain</text>
</g>
<g >
<title>schedule (9,136 us, 0.03%)</title><rect x="51.8" y="365" width="0.3" height="15.0" fill="rgb(109,219,219)" rx="2" ry="2" />
<text  x="54.79" y="375.5" ></text>
</g>
<g >
<title>send (30,364,304 us, 96.05%)</title><rect x="52.2" y="461" width="1133.4" height="15.0" fill="rgb(97,208,208)" rx="2" ry="2" />
<text  x="55.19" y="471.5" >send</text>
</g>
<g >
<title>__alloc_skb (6,164 us, 0.02%)</title><rect x="52.3" y="301" width="0.2" height="15.0" fill="rgb(72,185,185)" rx="2" ry="2" />
<text  x="55.30" y="311.5" ></text>
</g>
<g >
<title>_mdnblocks (4,431 us, 0.01%)</title><rect x="1186.4" y="189" width="0.2" height="15.0" fill="rgb(103,213,213)" rx="2" ry="2" />
<text  x="1189.43" y="199.5" ></text>
</g>
<g >
<title>__schedule (3,138 us, 0.01%)</title><rect x="1188.4" y="381" width="0.1" height="15.0" fill="rgb(58,172,172)" rx="2" ry="2" />
<text  x="1191.43" y="391.5" ></text>
</g>
<g >
<title>schedule (12,296 us, 0.04%)</title><rect x="1187.1" y="205" width="0.5" height="15.0" fill="rgb(85,197,197)" rx="2" ry="2" />
<text  x="1190.13" y="215.5" ></text>
</g>
<g >
<title>- (6,016 us, 0.02%)</title><rect x="1188.4" y="461" width="0.2" height="15.0" fill="rgb(200,200,200)" rx="2" ry="2" />
<text  x="1191.42" y="471.5" ></text>
</g>
<g >
<title>ExecSeqScan (5,774 us, 0.02%)</title><rect x="1186.4" y="381" width="0.2" height="15.0" fill="rgb(77,190,190)" rx="2" ry="2" />
<text  x="1189.38" y="391.5" ></text>
</g>
<g >
<title>exit_to_user_mode_prepare (5,344 us, 0.02%)</title><rect x="1189.7" y="429" width="0.2" height="15.0" fill="rgb(105,215,215)" rx="2" ry="2" />
<text  x="1192.69" y="439.5" ></text>
</g>
<g >
<title>parserOpenTable (3,127 us, 0.01%)</title><rect x="1188.2" y="349" width="0.1" height="15.0" fill="rgb(58,172,172)" rx="2" ry="2" />
<text  x="1191.16" y="359.5" ></text>
</g>
<g >
<title>send (5,344 us, 0.02%)</title><rect x="1189.7" y="493" width="0.2" height="15.0" fill="rgb(98,209,209)" rx="2" ry="2" />
<text  x="1192.69" y="503.5" ></text>
</g>
<g >
<title>PostmasterMain (31,409,092 us, 99.36%)</title><rect x="17.6" y="605" width="1172.3" height="15.0" fill="rgb(107,217,217)" rx="2" ry="2" />
<text  x="20.55" y="615.5" >PostmasterMain</text>
</g>
<g >
<title>ExecInitNode (19,420 us, 0.06%)</title><rect x="1186.9" y="429" width="0.7" height="15.0" fill="rgb(98,209,209)" rx="2" ry="2" />
<text  x="1189.91" y="439.5" ></text>
</g>
<g >
<title>__schedule (914,190 us, 2.89%)</title><rect x="17.6" y="301" width="34.1" height="15.0" fill="rgb(89,200,200)" rx="2" ry="2" />
<text  x="20.60" y="311.5" >__..</text>
</g>
<g >
<title>get_relation_info (5,022 us, 0.02%)</title><rect x="1189.1" y="333" width="0.2" height="15.0" fill="rgb(54,169,169)" rx="2" ry="2" />
<text  x="1192.11" y="343.5" ></text>
</g>
<g >
<title>pgstat_report_stat (5,354 us, 0.02%)</title><rect x="1189.7" y="525" width="0.2" height="15.0" fill="rgb(87,199,199)" rx="2" ry="2" />
<text  x="1192.69" y="535.5" ></text>
</g>
<g >
<title>- (914,190 us, 2.89%)</title><rect x="17.6" y="413" width="34.1" height="15.0" fill="rgb(200,200,200)" rx="2" ry="2" />
<text  x="20.60" y="423.5" >-</text>
</g>
<g >
<title>finish_task_switch (3,427 us, 0.01%)</title><rect x="52.3" y="221" width="0.1" height="15.0" fill="rgb(57,171,171)" rx="2" ry="2" />
<text  x="55.30" y="231.5" ></text>
</g>
<g >
<title>finish_task_switch (4,431 us, 0.01%)</title><rect x="1186.4" y="61" width="0.2" height="15.0" fill="rgb(51,166,166)" rx="2" ry="2" />
<text  x="1189.43" y="71.5" ></text>
</g>
<g >
<title>subquery_planner (16,446 us, 0.05%)</title><rect x="1189.0" y="429" width="0.6" height="15.0" fill="rgb(60,174,174)" rx="2" ry="2" />
<text  x="1191.98" y="439.5" ></text>
</g>
<g >
<title>ExecScan (5,774 us, 0.02%)</title><rect x="1186.4" y="365" width="0.2" height="15.0" fill="rgb(102,212,212)" rx="2" ry="2" />
<text  x="1189.38" y="375.5" ></text>
</g>
<g >
<title>pg_plan_query (22,183 us, 0.07%)</title><rect x="1188.8" y="493" width="0.8" height="15.0" fill="rgb(89,201,201)" rx="2" ry="2" />
<text  x="1191.78" y="503.5" ></text>
</g>
<g >
<title>_cond_resched (2,737 us, 0.01%)</title><rect x="52.4" y="253" width="0.1" height="15.0" fill="rgb(91,203,203)" rx="2" ry="2" />
<text  x="55.43" y="263.5" ></text>
</g>
<g >
<title>entry_SYSCALL_64_after_hwframe (5,344 us, 0.02%)</title><rect x="1189.7" y="461" width="0.2" height="15.0" fill="rgb(100,211,211)" rx="2" ry="2" />
<text  x="1192.69" y="471.5" ></text>
</g>
<g >
<title>exit_to_user_mode_prepare (119,021 us, 0.38%)</title><rect x="13.1" y="605" width="4.4" height="15.0" fill="rgb(81,194,194)" rx="2" ry="2" />
<text  x="16.10" y="615.5" ></text>
</g>
<g >
<title>PortalCleanup (4,325 us, 0.01%)</title><rect x="1186.0" y="493" width="0.2" height="15.0" fill="rgb(103,213,213)" rx="2" ry="2" />
<text  x="1189.02" y="503.5" ></text>
</g>
</g>
</svg>
